<mxfile host="Electron" agent="Mozilla/5.0 (Macintosh; Intel Mac OS X 10_15_7) AppleWebKit/537.36 (KHTML, like Gecko) draw.io/26.0.4 Chrome/128.0.6613.186 Electron/32.2.5 Safari/537.36" version="26.0.4">
  <diagram name="Page-1" id="uLC97kkECrQcUkzZvFg0">
    <mxGraphModel dx="1128" dy="833" grid="1" gridSize="10" guides="1" tooltips="1" connect="1" arrows="1" fold="1" page="1" pageScale="1" pageWidth="827" pageHeight="1169" math="0" shadow="0">
      <root>
        <mxCell id="0" />
        <mxCell id="1" parent="0" />
        <mxCell id="e5545xmRH3Jb9SJGrrUb-16" style="edgeStyle=orthogonalEdgeStyle;rounded=0;orthogonalLoop=1;jettySize=auto;html=1;exitX=0.5;exitY=1;exitDx=0;exitDy=0;entryX=0.5;entryY=0;entryDx=0;entryDy=0;" edge="1" parent="1" source="e5545xmRH3Jb9SJGrrUb-2" target="e5545xmRH3Jb9SJGrrUb-3">
          <mxGeometry relative="1" as="geometry" />
        </mxCell>
        <mxCell id="e5545xmRH3Jb9SJGrrUb-17" value="fetch content" style="edgeLabel;html=1;align=center;verticalAlign=middle;resizable=0;points=[];" vertex="1" connectable="0" parent="e5545xmRH3Jb9SJGrrUb-16">
          <mxGeometry x="0.0333" y="-2" relative="1" as="geometry">
            <mxPoint as="offset" />
          </mxGeometry>
        </mxCell>
        <mxCell id="e5545xmRH3Jb9SJGrrUb-29" style="rounded=0;orthogonalLoop=1;jettySize=auto;html=1;exitX=0.75;exitY=1;exitDx=0;exitDy=0;entryX=0.75;entryY=0;entryDx=0;entryDy=0;" edge="1" parent="1" source="e5545xmRH3Jb9SJGrrUb-2" target="e5545xmRH3Jb9SJGrrUb-3">
          <mxGeometry relative="1" as="geometry" />
        </mxCell>
        <mxCell id="e5545xmRH3Jb9SJGrrUb-30" value="collect tracking data" style="edgeLabel;html=1;align=center;verticalAlign=middle;resizable=0;points=[];" vertex="1" connectable="0" parent="e5545xmRH3Jb9SJGrrUb-29">
          <mxGeometry x="0.05" y="-1" relative="1" as="geometry">
            <mxPoint as="offset" />
          </mxGeometry>
        </mxCell>
        <mxCell id="e5545xmRH3Jb9SJGrrUb-52" style="rounded=0;orthogonalLoop=1;jettySize=auto;html=1;exitX=0.25;exitY=1;exitDx=0;exitDy=0;entryX=0.25;entryY=0;entryDx=0;entryDy=0;" edge="1" parent="1" source="e5545xmRH3Jb9SJGrrUb-2" target="e5545xmRH3Jb9SJGrrUb-3">
          <mxGeometry relative="1" as="geometry">
            <Array as="points" />
          </mxGeometry>
        </mxCell>
        <mxCell id="e5545xmRH3Jb9SJGrrUb-53" value="authenticate users" style="edgeLabel;html=1;align=center;verticalAlign=middle;resizable=0;points=[];" vertex="1" connectable="0" parent="e5545xmRH3Jb9SJGrrUb-52">
          <mxGeometry x="-0.04" y="-3" relative="1" as="geometry">
            <mxPoint as="offset" />
          </mxGeometry>
        </mxCell>
        <mxCell id="e5545xmRH3Jb9SJGrrUb-2" value="public network layer" style="rounded=0;whiteSpace=wrap;html=1;labelPosition=center;verticalLabelPosition=top;align=left;verticalAlign=bottom;spacingLeft=2;spacingTop=-2;fillColor=#dae8fc;fillStyle=solid;dashed=1;fontSize=10;strokeColor=#6c8ebf;gradientColor=none;" vertex="1" parent="1">
          <mxGeometry x="120" y="170" width="560" height="140" as="geometry" />
        </mxCell>
        <mxCell id="e5545xmRH3Jb9SJGrrUb-20" style="rounded=0;orthogonalLoop=1;jettySize=auto;html=1;exitX=0.25;exitY=1;exitDx=0;exitDy=0;entryX=0.25;entryY=0;entryDx=0;entryDy=0;" edge="1" parent="1" source="e5545xmRH3Jb9SJGrrUb-3" target="e5545xmRH3Jb9SJGrrUb-4">
          <mxGeometry relative="1" as="geometry" />
        </mxCell>
        <mxCell id="e5545xmRH3Jb9SJGrrUb-21" value="content requests" style="edgeLabel;html=1;align=center;verticalAlign=middle;resizable=0;points=[];" vertex="1" connectable="0" parent="e5545xmRH3Jb9SJGrrUb-20">
          <mxGeometry x="-0.0571" y="2" relative="1" as="geometry">
            <mxPoint as="offset" />
          </mxGeometry>
        </mxCell>
        <mxCell id="e5545xmRH3Jb9SJGrrUb-24" style="edgeStyle=orthogonalEdgeStyle;rounded=0;orthogonalLoop=1;jettySize=auto;html=1;exitX=0.5;exitY=1;exitDx=0;exitDy=0;" edge="1" parent="1" source="e5545xmRH3Jb9SJGrrUb-3" target="e5545xmRH3Jb9SJGrrUb-4">
          <mxGeometry relative="1" as="geometry" />
        </mxCell>
        <mxCell id="e5545xmRH3Jb9SJGrrUb-25" value="fetch config" style="edgeLabel;html=1;align=center;verticalAlign=middle;resizable=0;points=[];" vertex="1" connectable="0" parent="e5545xmRH3Jb9SJGrrUb-24">
          <mxGeometry x="-0.08" relative="1" as="geometry">
            <mxPoint as="offset" />
          </mxGeometry>
        </mxCell>
        <mxCell id="e5545xmRH3Jb9SJGrrUb-26" style="rounded=0;orthogonalLoop=1;jettySize=auto;html=1;exitX=0.75;exitY=1;exitDx=0;exitDy=0;entryX=0.75;entryY=0;entryDx=0;entryDy=0;" edge="1" parent="1" source="e5545xmRH3Jb9SJGrrUb-3" target="e5545xmRH3Jb9SJGrrUb-4">
          <mxGeometry relative="1" as="geometry" />
        </mxCell>
        <mxCell id="e5545xmRH3Jb9SJGrrUb-27" value="Text" style="edgeLabel;html=1;align=center;verticalAlign=middle;resizable=0;points=[];" vertex="1" connectable="0" parent="e5545xmRH3Jb9SJGrrUb-26">
          <mxGeometry x="-0.1586" y="-3" relative="1" as="geometry">
            <mxPoint as="offset" />
          </mxGeometry>
        </mxCell>
        <mxCell id="e5545xmRH3Jb9SJGrrUb-3" value="presentation layer" style="rounded=0;whiteSpace=wrap;html=1;labelPosition=center;verticalLabelPosition=top;align=left;verticalAlign=bottom;spacingLeft=2;spacingTop=-2;fillColor=#d5e8d4;fillStyle=auto;dashed=1;fontSize=10;strokeColor=#82b366;" vertex="1" parent="1">
          <mxGeometry x="80" y="370" width="640" height="210" as="geometry" />
        </mxCell>
        <mxCell id="e5545xmRH3Jb9SJGrrUb-4" value="data access layer" style="rounded=0;whiteSpace=wrap;html=1;labelPosition=center;verticalLabelPosition=top;align=left;verticalAlign=bottom;spacingLeft=2;spacingTop=-2;fillColor=#f8cecc;fillStyle=auto;dashed=1;fontSize=10;strokeColor=#b85450;" vertex="1" parent="1">
          <mxGeometry x="40" y="630" width="720" height="250" as="geometry" />
        </mxCell>
        <mxCell id="e5545xmRH3Jb9SJGrrUb-8" value="SSO Adapter" style="rounded=0;whiteSpace=wrap;html=1;" vertex="1" parent="1">
          <mxGeometry x="280" y="410" width="106" height="50" as="geometry" />
        </mxCell>
        <mxCell id="e5545xmRH3Jb9SJGrrUb-9" value="UserService" style="rounded=0;whiteSpace=wrap;html=1;" vertex="1" parent="1">
          <mxGeometry x="70" y="650" width="106" height="50" as="geometry" />
        </mxCell>
        <mxCell id="e5545xmRH3Jb9SJGrrUb-10" value="Tracking-Service" style="rounded=0;whiteSpace=wrap;html=1;" vertex="1" parent="1">
          <mxGeometry x="550" y="410" width="106" height="50" as="geometry" />
        </mxCell>
        <mxCell id="e5545xmRH3Jb9SJGrrUb-18" style="rounded=0;orthogonalLoop=1;jettySize=auto;html=1;exitX=0.5;exitY=1;exitDx=0;exitDy=0;entryX=0.5;entryY=0;entryDx=0;entryDy=0;" edge="1" parent="1" source="e5545xmRH3Jb9SJGrrUb-11" target="e5545xmRH3Jb9SJGrrUb-2">
          <mxGeometry relative="1" as="geometry" />
        </mxCell>
        <mxCell id="e5545xmRH3Jb9SJGrrUb-32" value="page requests" style="edgeLabel;html=1;align=center;verticalAlign=middle;resizable=0;points=[];" vertex="1" connectable="0" parent="e5545xmRH3Jb9SJGrrUb-18">
          <mxGeometry x="-0.086" y="2" relative="1" as="geometry">
            <mxPoint as="offset" />
          </mxGeometry>
        </mxCell>
        <mxCell id="e5545xmRH3Jb9SJGrrUb-11" value="Web browsers&lt;div&gt;iOS app&amp;nbsp;&lt;/div&gt;&lt;div&gt;Android app&lt;/div&gt;" style="rounded=0;whiteSpace=wrap;html=1;" vertex="1" parent="1">
          <mxGeometry x="347" y="80" width="106" height="50" as="geometry" />
        </mxCell>
        <mxCell id="e5545xmRH3Jb9SJGrrUb-12" value="AWS Cloud Front" style="rounded=0;whiteSpace=wrap;html=1;" vertex="1" parent="1">
          <mxGeometry x="420" y="215" width="106" height="50" as="geometry" />
        </mxCell>
        <mxCell id="e5545xmRH3Jb9SJGrrUb-13" value="Payment Service" style="rounded=0;whiteSpace=wrap;html=1;" vertex="1" parent="1">
          <mxGeometry x="413.5" y="410" width="106" height="50" as="geometry" />
        </mxCell>
        <mxCell id="e5545xmRH3Jb9SJGrrUb-31" value="CDN" style="rounded=0;whiteSpace=wrap;html=1;" vertex="1" parent="1">
          <mxGeometry x="290" y="215" width="106" height="50" as="geometry" />
        </mxCell>
        <mxCell id="e5545xmRH3Jb9SJGrrUb-33" value="Content Service" style="rounded=0;whiteSpace=wrap;html=1;" vertex="1" parent="1">
          <mxGeometry x="550" y="490" width="106" height="50" as="geometry" />
        </mxCell>
        <mxCell id="e5545xmRH3Jb9SJGrrUb-34" value="Search&lt;span style=&quot;color: rgba(0, 0, 0, 0); font-family: monospace; font-size: 0px; text-align: start; text-wrap: nowrap;&quot;&gt;%3CmxGraphModel%3E%3Croot%3E%3CmxCell%20id%3D%220%22%2F%3E%3CmxCell%20id%3D%221%22%20parent%3D%220%22%2F%3E%3CmxCell%20id%3D%222%22%20value%3D%22Content%20Service%22%20style%3D%22rounded%3D0%3BwhiteSpace%3Dwrap%3Bhtml%3D1%3B%22%20vertex%3D%221%22%20parent%3D%221%22%3E%3CmxGeometry%20x%3D%22550%22%20y%3D%22470%22%20width%3D%22106%22%20height%3D%2250%22%20as%3D%22geometry%22%2F%3E%3C%2FmxCell%3E%3C%2Froot%3E%3C%2FmxGraphModel%3E&lt;/span&gt;&amp;nbsp;Service" style="rounded=0;whiteSpace=wrap;html=1;" vertex="1" parent="1">
          <mxGeometry x="280" y="490" width="106" height="50" as="geometry" />
        </mxCell>
        <mxCell id="e5545xmRH3Jb9SJGrrUb-35" value="SLM Common" style="rounded=0;whiteSpace=wrap;html=1;" vertex="1" parent="1">
          <mxGeometry x="150" y="490" width="106" height="50" as="geometry" />
        </mxCell>
        <mxCell id="e5545xmRH3Jb9SJGrrUb-36" value="Common Infra" style="rounded=0;whiteSpace=wrap;html=1;" vertex="1" parent="1">
          <mxGeometry x="498" y="730" width="106" height="50" as="geometry" />
        </mxCell>
        <mxCell id="e5545xmRH3Jb9SJGrrUb-37" value="Adapter" style="rounded=0;whiteSpace=wrap;html=1;" vertex="1" parent="1">
          <mxGeometry x="150" y="410" width="106" height="50" as="geometry" />
        </mxCell>
        <mxCell id="e5545xmRH3Jb9SJGrrUb-38" value="Common Artifacts&lt;span style=&quot;color: rgba(0, 0, 0, 0); font-family: monospace; font-size: 0px; text-align: start; text-wrap: nowrap;&quot;&gt;%3CmxGraphModel%3E%3Croot%3E%3CmxCell%20id%3D%220%22%2F%3E%3CmxCell%20id%3D%221%22%20parent%3D%220%22%2F%3E%3CmxCell%20id%3D%222%22%20value%3D%22Common%20Infra%22%20style%3D%22rounded%3D0%3BwhiteSpace%3Dwrap%3Bhtml%3D1%3B%22%20vertex%3D%221%22%20parent%3D%221%22%3E%3CmxGeometry%20x%3D%22150%22%20y%3D%22470%22%20width%3D%22106%22%20height%3D%2250%22%20as%3D%22geometry%22%2F%3E%3C%2FmxCell%3E%3C%2Froot%3E%3C%2FmxGraphModel%3E&lt;/span&gt;" style="rounded=0;whiteSpace=wrap;html=1;" vertex="1" parent="1">
          <mxGeometry x="213" y="650" width="106" height="50" as="geometry" />
        </mxCell>
        <mxCell id="e5545xmRH3Jb9SJGrrUb-39" value="Tooling" style="rounded=0;whiteSpace=wrap;html=1;" vertex="1" parent="1">
          <mxGeometry x="355" y="650" width="106" height="50" as="geometry" />
        </mxCell>
        <mxCell id="e5545xmRH3Jb9SJGrrUb-40" value="Dashboard Plugins" style="rounded=0;whiteSpace=wrap;html=1;" vertex="1" parent="1">
          <mxGeometry x="498" y="650" width="106" height="50" as="geometry" />
        </mxCell>
        <mxCell id="e5545xmRH3Jb9SJGrrUb-41" value="Renovate" style="rounded=0;whiteSpace=wrap;html=1;" vertex="1" parent="1">
          <mxGeometry x="70" y="730" width="106" height="50" as="geometry" />
        </mxCell>
        <mxCell id="e5545xmRH3Jb9SJGrrUb-42" value="ElastiCache" style="rounded=0;whiteSpace=wrap;html=1;" vertex="1" parent="1">
          <mxGeometry x="213" y="730" width="106" height="50" as="geometry" />
        </mxCell>
        <mxCell id="e5545xmRH3Jb9SJGrrUb-43" value="CMS Sitebuilder" style="rounded=0;whiteSpace=wrap;html=1;" vertex="1" parent="1">
          <mxGeometry x="355" y="730" width="106" height="50" as="geometry" />
        </mxCell>
        <mxCell id="e5545xmRH3Jb9SJGrrUb-44" value="React-Frontend" style="rounded=0;whiteSpace=wrap;html=1;" vertex="1" parent="1">
          <mxGeometry x="414" y="490" width="106" height="50" as="geometry" />
        </mxCell>
        <mxCell id="e5545xmRH3Jb9SJGrrUb-45" value="Iterable Bridge" style="rounded=0;whiteSpace=wrap;html=1;" vertex="1" parent="1">
          <mxGeometry x="640" y="730" width="106" height="50" as="geometry" />
        </mxCell>
        <mxCell id="e5545xmRH3Jb9SJGrrUb-46" value="AWS Backup" style="rounded=0;whiteSpace=wrap;html=1;" vertex="1" parent="1">
          <mxGeometry x="640" y="650" width="106" height="50" as="geometry" />
        </mxCell>
        <mxCell id="e5545xmRH3Jb9SJGrrUb-47" value="Event Service" style="rounded=0;whiteSpace=wrap;html=1;" vertex="1" parent="1">
          <mxGeometry x="355" y="810" width="106" height="50" as="geometry" />
        </mxCell>
        <mxCell id="e5545xmRH3Jb9SJGrrUb-48" value="DNS" style="rounded=0;whiteSpace=wrap;html=1;" vertex="1" parent="1">
          <mxGeometry x="160" y="215" width="106" height="50" as="geometry" />
        </mxCell>
        <mxCell id="e5545xmRH3Jb9SJGrrUb-49" value="Load Balancer" style="rounded=0;whiteSpace=wrap;html=1;" vertex="1" parent="1">
          <mxGeometry x="550" y="215" width="106" height="50" as="geometry" />
        </mxCell>
      </root>
    </mxGraphModel>
  </diagram>
</mxfile>
